<?xml version="1.0" encoding="utf-8"?>
<!-- Generator: Adobe Illustrator 19.0.0, SVG Export Plug-In . SVG Version: 6.00 Build 0)  -->
<svg version="1.1" id="layer" xmlns="http://www.w3.org/2000/svg" xmlns:xlink="http://www.w3.org/1999/xlink" x="0px" y="0px"
	 viewBox="-153 -46 652 652" style="enable-background:new -153 -46 652 652;" xml:space="preserve">
<style type="text/css">
	.st0{fill:#FEEE00;stroke:#FFFFFF;stroke-width:7.5;stroke-miterlimit:10;}
	.st1{fill:#FFFFFF;}
	.st2{fill:#FC0376;stroke:#FFFFFF;stroke-width:5.2632;stroke-miterlimit:10;}
	.st3{fill:#FFFFFF;stroke:#FFFFFF;stroke-width:18.1703;stroke-linecap:round;stroke-linejoin:round;stroke-miterlimit:2.6131;}
	.st4{fill:#005DA9;}
</style>
<circle class="st0" cx="168" cy="275" r="250"/>
<path class="st1" d="M14.1,343.4c0,0,89.4,58,150.4,76.5c64.1-12,116.5-54.3,153.5-102.8s24.5-140.8,24.5-140.8l-28.3-17.1
	c0,0-115.8,98.7-119.7,115.8c-3.9,17.1-93.4,28.9-93.4,28.9L68,260.5l-72.4,2.6L-25.7,328C-25.7,328-43.8,339.5,14.1,343.4z"/>
<g>
	<path class="st2" d="M22.5,165.3l231.1-60.5l40.6,150l88.8-23l-85.1,111.7l-0.9,0.2c0,0-7.8,2.1-10.2,0.7c-2.5-1.4,2.8-11.3,5.6-18
		c2.8-6.7,8.1-22.9,12.7-32.1c4.6-9.2,11.3-16.6,13-17.3c1.8-0.7,2.8-7,2.1-9.9c-0.7-2.8,0-6-2.8-6c-2.8,0-4.9,8.5-8.8,13.4
		c-3.9,4.9-12.7,21.6-20.1,36.9c-7.4,15.3-21.9,32.8-29.1,40c-7.8,6.1-1.5-5.7-0.8-9.3c0.7-3.5,5.3-13.4,5.3-13.4s6.3-7.1-1.8-4.6
		c-8.1,2.5-15.5,14.4-15.5,14.4s-20.1,25-27.1,29.9c-7,4.9-5.3-2.8-3.9-10.6c1.4-7.8,10.2-16.9,10.2-16.9l3.5-1.4
		c0,0-2.1,7.8-0.4,7.4c1.8-0.4,3.9-3.5,4.2-6.3c0.4-2.8,0-14.4-2.1-13c-2.1,1.4-13.4,11.6-16.9,15.9c-3.5,4.2-16.2,20.1-20.8,27.5
		c-4.6,7.4-1.4-3.9-1.4-3.9s1.8-6.3,2.1-9.2c0.3-2.8-3.5-1.4-3.5-1.4l-5.3,5.3c0,0-1.1,1.1-1.1,5.3c0,4.2-5.3,10.2-10.6,13.4
		c-5.3,3.2-3.2-2.8-3.2-2.8s1.8-7.4,7-16.2c5.3-8.8,10.9-9.5,14.1-10.9c3.2-1.4,1.8-3.5,0.7-5.3c-1.1-1.8-4.5-0.5-5.6,0.4
		c-2.4,1.9-41.6,34.7-43.3,40.5c-1.7,5.8,3.9,1.4,3.9,1.4l15.5-16.9l0.7-0.8L163,374c0,0-4.6,8.1-3.5,13.7c1.2,4.5,4.6,3.6,7.1,3.4
		c2.5-0.4,7.4-7.3,10.6-9.7c3.2-2.5,3.5,0.4,4.6,2.5c1.1,2.1,5.6-0.7,5.6-0.7s10.6-14.4,13-17.6c2.5-3.2,5.6-3.2,5.6-3.2
		s-1.4,4.2,2.1,9.9c3.5,5.6,9.9,1.4,13.7-1.1c3.9-2.5,16.2-18,19-21.8c2.8-3.9,6.7-4.6,6.7-4.6s-2.1,12.3-1.4,15.5
		c0.7,3.2,6,3.9,12.3-2.1c6.3-6,19.6-25.5,19.6-25.5s-3.4,9.7-2.4,17.1c1.1,7.4,7.4,5.3,10.1,4.4c2.2-1.5,4.7-2.8,6.8-3.9
		l-71.9,94.3l-98.2-43c3.2-9.4,14-41.9,14.4-43c10.8-3.4,21.3-6.7,21.3-6.7c1-2.5,2.2-6.1,4.5-10.3c2.3-4.2-3.3-3.3-3.3-3.3
		s-9.5,7-13.7,8.4c-5.8,3-3.5-3.3-3.5-3.3s8.4-17.3,11.2-24.3c2.8-7,10.7-7,17.3-9.8c6.5-2.8,50.9-16.8,58.4-19.6
		c7.5-2.8,6.1-14,6.1-14s-7.9,4.2-14,6.1c-6.1,1.9-47.2,17.7-51.8,20.1c-4.7,2.3-2.3-1.9-2.3-5.1c0-3.3-2.3-1.9-2.3-1.9
		s-5.6,2.8-9.3,3.7c-3.7,0.9-6.1,7.5-6.1,7.5s-36.9,16.8-44.8,26.1c-7.9,9.3,4.7,5.1,4.7,5.1s35.5-21,32.7-15.9
		c-2.8,5.1-14.9,33.6-14.9,33.6s-11.7,7.9-15.9,11.2c-4.2,3.3-2.3,9.8-2.3,9.8s16.8-13.5,14.9-9.3c-1.6,3.5-7,24.5-8.8,31.4
		l-140.4-61.5l85.7-23L22.5,165.3L22.5,165.3z M199.9,334.2c0,0,9.4-11.2,10.8-14.8c1.3-3.6,7.2-4,6.7,0c-0.5,4-9.9,12.1-9.9,12.1
		s-4.5,5.4-6.7,5.4C198.5,336.9,199.9,334.2,199.9,334.2L199.9,334.2z M265.3,315.5c0,0-3,0.4-2.5-4.7c0.4-5.1,1.7-4.2,4.2-6.3
		c2.5-2.1,4.7-5.1,4.7-0.8c0,4.2-0.4,6.3-2.5,8.9C267,315.1,265.3,315.5,265.3,315.5L265.3,315.5z"/>
	<path class="st3" d="M-44.1,243.7l51.7-13.4c9.4-2.4,17.3-3.6,23.7-3.5c6.7-0.1,12.3,0.9,16.8,3c4.5,2.1,7.8,5.4,10.1,9.9
		c0.9,1.9,1.7,4,2.2,6.4c3.6,17.9-9.2,30.6-38.3,38.1l-18.1,4.7l5.8,24.7l-35.3,9.2L-44.1,243.7L-44.1,243.7z M162,192.7h0.3
		c1.1-0.8,2.3-1.6,3.6-2.3c6.5-3.9,14.3-7,23.4-9.4c4.9-1.3,9.2-2.1,12.9-2.6c3.7-0.5,7.8-0.6,12.2-0.3c7.6,0.4,14.3,2.1,19.9,5.3
		c5.7,3.2,9.9,7.6,12.8,13.3l0.2,0.4l-19.1,5v9l22.4-5.8l10,43.8l-22.5,5.8l-3.3-7.3c-1.9,2.5-4.1,4.8-6.6,6.9v0.1H228
		c-6,4.9-13.7,8.5-23.2,11c-13.8,3.6-25.9,3.6-36.4,0.2c-10.5-3.4-17.9-9.5-22.2-18.1l-2.2-4.7l-1-4.3c-2.9-12.5-0.5-23.9,7.2-34.4
		c3.1-4.3,7.1-8.1,11.8-11.4L162,192.7L162,192.7z M-4.3,253l3.8,17.7l15.3-4c4.4-1.1,7.7-3.1,9.9-5.8c2.2-2.7,2.6-5.5,1.1-8.4
		c-2.2-4.3-8.7-5.1-19.6-2.3L-4.3,253L-4.3,253z M70,214.1l36.1-9.4l57.1,69.2l-35.2,9.1l-6.8-9.4l-35.3,9.2l-1.5,11.6L50,303.3
		L70,214.1L70,214.1z M88.9,264.6l22.3-5.8l-17.7-25.5L88.9,264.6L88.9,264.6z M303.2,151.4c15.9-4.1,29.2-4.3,39.9-0.5
		c5.1,1.8,9.7,4.3,13.8,7.6c1.9,1.6,3.7,3.3,5.2,5.2c1.5,1.9,2.9,4.1,4.1,6.6l2,3.9l1,3.4c2,7.3,1.6,14.8-1.1,22.5
		c-2.7,7.7-8,14.7-16,20.9c-7.9,6.3-17.8,10.9-29.7,14c-16.1,4.2-29.5,4.3-40.3,0.5c-10.8-3.8-18.4-10.1-22.7-18.8l-1-3l-1.3-3.5
		l-1.1-3.1c-1.5-7.8-1-15.1,1.6-22c2.6-6.9,7.8-13.5,15.7-19.7C281.3,159.2,291.3,154.5,303.2,151.4L303.2,151.4z M307.4,170.8
		c-15.4,4-19.8,15.6-13.3,34.8c4.8,9.6,12.8,12.9,23.8,10c8.8-2.3,14.1-6.9,16-14c1.9-7.1,1.1-14-2.3-20.8c-2.3-4.5-5.4-7.6-9.4-9.5
		C318.1,169.5,313.2,169.3,307.4,170.8L307.4,170.8z"/>
	<path class="st4" d="M-42.9,243.7l51.7-13.4c9.4-2.4,17.3-3.6,23.7-3.5c6.7-0.1,12.3,0.9,16.8,3c4.5,2.1,7.8,5.4,10.1,9.9
		c0.9,1.9,1.7,4,2.2,6.4c3.6,17.9-9.2,30.6-38.3,38.1l-18.1,4.7l5.8,24.7l-35.3,9.2L-42.9,243.7L-42.9,243.7z M-3.1,253l3.8,17.7
		l15.3-4c4.4-1.1,7.7-3.1,9.9-5.8c2.2-2.7,2.6-5.5,1.1-8.4c-2.2-4.3-8.7-5.1-19.6-2.3L-3.1,253L-3.1,253z M71.2,214.1l36.1-9.4
		l57.1,69.2l-35.2,9.1l-6.8-9.4l-35.3,9.2l-1.5,11.6l-34.4,8.9L71.2,214.1L71.2,214.1z M90.1,264.6l22.3-5.8l-17.7-25.5L90.1,264.6
		L90.1,264.6z M207.5,234.8l-4.1-17.1l48.4-12.5l10,43.8l-22.5,5.8l-3.3-7.3c-6.3,8.5-16.3,14.5-30,18c-13.8,3.6-25.9,3.6-36.4,0.2
		c-10.5-3.4-17.9-9.5-22.3-18.1l-2.2-4.7l-1-4.3c-2.9-12.5-0.5-23.9,7.2-34.4c4-5.4,9.2-10,15.7-13.9c6.5-3.9,14.3-7,23.4-9.4
		c4.9-1.3,9.2-2.1,12.9-2.6c3.7-0.5,7.8-0.6,12.2-0.3c7.6,0.4,14.3,2.1,19.9,5.3c5.7,3.2,9.9,7.6,12.8,13.3l0.2,0.4l-33.5,8.7
		c-4.3-6-11.1-7.7-20.6-5.3c-15.6,4-19.8,15.8-12.8,35.4c4.6,9.1,13,12.1,25.3,8.9c3.8-1,7.4-2.8,10.7-5.5c3.3-2.7,5.1-5.5,5.3-8.4
		L207.5,234.8L207.5,234.8z M304.4,151.4c15.9-4.1,29.2-4.3,39.9-0.5c5.1,1.8,9.7,4.3,13.8,7.6c1.9,1.6,3.7,3.3,5.2,5.2
		c1.5,1.9,2.9,4.1,4.1,6.6l2,3.9l1,3.4c2,7.3,1.6,14.8-1.1,22.5c-2.7,7.7-8,14.7-16,20.9c-7.9,6.3-17.8,10.9-29.7,14
		c-16.1,4.2-29.5,4.3-40.3,0.5c-10.8-3.8-18.4-10.1-22.7-18.8l-1-3l-1.3-3.5l-1.1-3.1c-1.5-7.8-1-15.1,1.6-22
		c2.6-6.9,7.8-13.5,15.7-19.7C282.5,159.2,292.5,154.5,304.4,151.4L304.4,151.4z M308.6,170.8c-15.4,4-19.8,15.6-13.3,34.8
		c4.8,9.6,12.8,12.9,23.8,10c8.8-2.3,14.1-6.9,16-14c1.9-7,1.1-14-2.3-20.8c-2.3-4.5-5.4-7.6-9.4-9.5
		C319.3,169.5,314.4,169.3,308.6,170.8L308.6,170.8z"/>
</g>
</svg>
